<?xml version="1.0" standalone="no"?>
<!DOCTYPE svg PUBLIC "-//W3C//DTD SVG 20010904//EN"
 "http://www.w3.org/TR/2001/REC-SVG-20010904/DTD/svg10.dtd">
<svg version="1.0" xmlns="http://www.w3.org/2000/svg"
 width="512.000000pt" height="512.000000pt" viewBox="0 0 512.000000 512.000000"
 preserveAspectRatio="xMidYMid meet">

<g transform="translate(0.000000,512.000000) scale(0.100000,-0.100000)"
fill="#000000" stroke="none">
<path d="M0 2560 l0 -2560 524 0 524 0 -29 29 -29 29 0 221 0 221 -139 0
c-122 0 -142 2 -162 19 l-24 19 0 286 c0 358 -16 329 185 334 l140 4 0 45 c0
83 30 112 113 113 l58 0 -3 83 -3 82 -45 3 c-25 1 -55 5 -67 7 -30 7 -53 54
-53 109 l0 44 -141 4 c-140 3 -141 3 -165 31 l-24 28 0 265 c0 277 5 312 45
328 9 3 76 6 150 6 l133 0 4 60 c3 45 10 66 26 83 l23 22 1519 0 1519 0 23
-22 c16 -17 23 -38 26 -83 l4 -60 137 0 c91 -1 141 -5 152 -13 36 -28 39 -51
39 -321 l0 -265 -24 -28 c-24 -28 -25 -28 -165 -31 l-141 -4 0 -44 c0 -55 -23
-102 -53 -109 -12 -2 -42 -6 -67 -7 l-45 -3 -3 -82 -3 -83 58 0 c83 -1 113
-30 113 -113 l0 -45 140 -4 c201 -5 185 24 185 -334 l0 -286 -24 -19 c-20 -17
-40 -19 -162 -19 l-139 0 0 -221 0 -221 -29 -29 -29 -29 524 0 524 0 0 2560 0
2560 -1112 -1 c-1104 0 -1112 -1 -1026 -19 215 -45 421 -192 532 -380 36 -61
80 -166 91 -217 5 -25 21 -43 69 -77 88 -63 167 -151 212 -240 36 -69 43 -77
83 -91 65 -22 134 -70 194 -135 87 -93 127 -198 127 -331 0 -175 -95 -336
-252 -427 -49 -28 -161 -62 -204 -62 l-34 0 0 80 c0 79 0 80 28 85 81 17 116
31 156 59 124 88 172 229 126 366 -38 114 -113 185 -230 220 -70 21 -93 38
-105 80 -32 107 -119 216 -220 274 -77 46 -88 60 -105 136 -43 190 -166 349
-339 438 -100 52 -185 72 -302 72 -190 0 -324 -56 -460 -190 -100 -99 -156
-199 -184 -327 -28 -127 -67 -148 -178 -98 -232 106 -493 -16 -567 -266 -26
-85 -42 -99 -129 -109 -80 -9 -139 -36 -194 -88 -125 -120 -139 -316 -31 -445
55 -66 115 -98 227 -122 27 -5 27 -6 27 -85 l0 -80 -34 0 c-43 0 -155 34 -204
62 -159 92 -252 251 -252 432 0 135 52 258 150 354 60 59 168 117 238 128 27
4 46 13 49 23 2 9 21 49 41 90 112 229 393 359 637 296 32 -9 62 -12 65 -8 4
4 13 26 20 48 38 121 144 275 249 362 108 89 263 160 399 183 26 4 -566 8
-1315 9 l-1363 1 0 -2560z m2263 1228 c45 -23 46 -32 47 -265 l0 -223 54 0
c30 0 62 -3 71 -6 23 -9 48 -62 41 -89 -3 -13 -103 -139 -221 -281 -228 -274
-252 -296 -303 -272 -23 11 -352 392 -433 502 -35 47 -37 91 -7 123 18 19 32
23 80 23 l58 0 0 213 c0 227 5 251 50 274 34 17 531 18 563 1z m944 -32 c17
-17 120 -137 227 -266 215 -258 223 -274 171 -325 -20 -21 -34 -25 -79 -25
l-55 0 -3 -225 c-3 -218 -4 -225 -26 -247 -22 -23 -28 -23 -275 -26 -279 -3
-308 -1 -337 30 -19 20 -20 36 -20 245 l0 223 -58 0 c-45 0 -63 5 -80 20 -28
27 -37 62 -21 92 28 53 433 528 458 537 36 13 60 5 98 -33z"/>
<path d="M1818 3409 l-3 -221 -33 -28 -33 -27 112 -134 c61 -74 114 -135 118
-137 4 -1 60 61 124 138 65 77 113 140 107 140 -6 0 -22 11 -35 25 l-25 24 0
221 0 220 -164 0 -165 0 -3 -221z"/>
<path d="M3017 3443 c-114 -137 -115 -138 -91 -151 13 -7 28 -21 34 -32 6 -11
10 -106 10 -234 l0 -216 165 0 165 0 0 204 c0 112 5 216 10 232 6 16 22 37 36
45 l25 16 -111 134 c-62 74 -116 135 -120 137 -4 2 -59 -59 -123 -135z"/>
<path d="M1160 1980 l0 -330 1400 0 1400 0 0 330 0 330 -1400 0 -1400 0 0
-330z m1801 238 c130 -44 201 -176 164 -303 -53 -185 -288 -240 -416 -98 -82
90 -84 229 -7 323 21 26 81 67 113 78 41 14 105 14 146 0z m672 -4 c97 -33
161 -126 161 -234 0 -139 -104 -242 -244 -242 -66 0 -113 18 -164 62 -139 122
-91 349 88 417 44 16 105 16 159 -3z m-2143 -314 l0 -80 -85 0 -85 0 0 80 0
80 85 0 85 0 0 -80z m330 0 l0 -80 -85 0 -85 0 0 80 0 80 85 0 85 0 0 -80z
m330 0 l0 -80 -85 0 -85 0 0 80 0 80 85 0 85 0 0 -80z"/>
<path d="M2831 2034 c-28 -36 -27 -79 4 -109 50 -51 135 -15 135 58 0 72 -95
107 -139 51z"/>
<path d="M3491 2034 c-29 -37 -27 -79 5 -109 54 -50 134 -15 134 58 0 72 -95
107 -139 51z"/>
<path d="M830 1985 l0 -165 80 0 80 0 0 165 0 165 -80 0 -80 0 0 -165z"/>
<path d="M4130 1985 l0 -165 80 0 80 0 0 165 0 165 -80 0 -80 0 0 -165z"/>
<path d="M1320 1405 l0 -85 1240 0 1240 0 0 85 0 85 -1240 0 -1240 0 0 -85z"/>
<path d="M1160 830 l0 -330 1400 0 1400 0 0 330 0 330 -1400 0 -1400 0 0 -330z
m1841 213 c180 -92 180 -341 0 -435 -182 -95 -394 68 -350 271 23 109 125 191
239 191 42 0 71 -7 111 -27z m654 3 c64 -29 110 -82 130 -148 19 -64 19 -82 0
-144 -39 -133 -186 -207 -318 -160 -164 59 -214 272 -94 405 63 69 190 90 282
47z m-2167 -303 l3 -83 -86 0 -85 0 0 85 0 86 83 -3 82 -3 3 -82z m330 0 l3
-83 -86 0 -85 0 0 85 0 86 83 -3 82 -3 3 -82z m330 0 l3 -83 -86 0 -85 0 0 78
c0 43 3 82 7 86 4 4 41 5 83 4 l75 -3 3 -82z"/>
<path d="M2855 898 c-74 -43 -49 -151 35 -151 85 0 109 111 33 151 -27 15 -42
15 -68 0z"/>
<path d="M3515 898 c-46 -27 -58 -75 -29 -116 44 -64 143 -36 144 40 0 40 -9
57 -41 73 -33 18 -47 18 -74 3z"/>
<path d="M830 825 l0 -165 80 0 80 0 0 165 0 165 -80 0 -80 0 0 -165z"/>
<path d="M4130 825 l0 -165 80 0 80 0 0 165 0 165 -80 0 -80 0 0 -165z"/>
<path d="M1160 250 l0 -80 1400 0 1400 0 0 80 0 80 -1400 0 -1400 0 0 -80z"/>
</g>
</svg>
